<svg width="110" height="110" viewBox="0 0 110 110" fill="none" xmlns="http://www.w3.org/2000/svg">
<path d="M57.7225 106.599L57.6675 106.608L57.3421 106.769L57.2504 106.787L57.1862 106.769L56.8608 106.604C56.8119 106.592 56.7753 106.601 56.7508 106.631L56.7325 106.677L56.6546 108.639L56.6775 108.73L56.7233 108.79L57.2 109.129L57.2687 109.148L57.3237 109.129L57.8004 108.79L57.8554 108.717L57.8737 108.639L57.7958 106.682C57.7836 106.633 57.7592 106.605 57.7225 106.599ZM58.9325 106.081L58.8683 106.09L58.025 106.517L57.9792 106.563L57.9654 106.613L58.0479 108.584L58.0708 108.639L58.1075 108.675L59.0287 109.097C59.0868 109.112 59.1311 109.1 59.1617 109.06L59.18 108.996L59.0242 106.182C59.0089 106.124 58.9783 106.09 58.9325 106.081ZM55.6554 106.09C55.6352 106.078 55.6111 106.074 55.588 106.079C55.565 106.084 55.5448 106.098 55.5317 106.118L55.5042 106.182L55.3483 108.996C55.3514 109.051 55.3774 109.088 55.4262 109.106L55.495 109.097L56.4162 108.671L56.4621 108.634L56.4758 108.584L56.5583 106.613L56.5446 106.558L56.4987 106.512L55.6554 106.09Z" fill="#688BA7"/>
<path d="M83.1737 30.8596C75.0861 29.6298 66.8189 30.4622 59.1387 33.2796L57.5529 33.8846C47.1595 38.0966 35.8223 39.4267 24.7362 37.7346C19.9787 37.0012 15.0196 35.8188 10.6746 33.6508C9.09131 32.8662 7.87093 31.5021 7.26672 29.8416C6.6625 28.1811 6.72083 26.3517 7.42961 24.7331C8.13839 23.1145 9.44319 21.8309 11.0732 21.1487C12.7033 20.4666 14.5334 20.4382 16.1837 21.0696L16.7887 21.3354C19.9146 22.8021 23.4346 23.6225 26.8262 24.145C32.9862 25.0892 41.415 25.1533 50.8612 21.7204L52.4471 21.1154C62.8405 16.9034 74.1777 15.5734 85.2637 17.2654C90.0212 17.9988 94.9758 19.1858 99.3162 21.3446C100.938 22.1717 102.169 23.6029 102.745 25.3296C103.322 27.0564 103.196 28.9403 102.396 30.5754C100.705 33.9579 97.2537 34.7325 93.2067 33.6646L83.1737 30.8596ZM83.1737 58.3596C75.0861 57.1298 66.8189 57.9622 59.1387 60.7796L57.5529 61.3846C47.1595 65.5966 35.8223 66.9267 24.7362 65.2346C19.9787 64.5013 15.0196 63.3188 10.6746 61.1508C9.09131 60.3662 7.87093 59.0021 7.26672 57.3416C6.6625 55.6811 6.72083 53.8517 7.42961 52.2331C8.13839 50.6145 9.44319 49.3309 11.0732 48.6487C12.7033 47.9666 14.5334 47.9382 16.1837 48.5696L16.7887 48.8354C19.9146 50.3021 23.4346 51.1225 26.8262 51.645C32.9862 52.5892 41.415 52.6533 50.8612 49.2204L52.4471 48.6154C62.8405 44.4034 74.1777 43.0733 85.2637 44.7654C90.0212 45.4988 94.9758 46.6858 99.3162 48.8446C100.938 49.6717 102.169 51.1029 102.745 52.8296C103.322 54.5564 103.196 56.4403 102.396 58.0754C100.705 61.4625 97.2537 62.2325 93.2067 61.1646L83.1737 58.3596ZM55.8846 89.5263L57.5529 88.8846C65.6645 85.5857 74.5169 84.5405 83.1737 85.8596L93.2112 88.6646C97.2537 89.7325 100.705 88.9625 102.401 85.5754C103.199 83.9402 103.323 82.057 102.746 80.3313C102.169 78.6056 100.937 77.1755 99.3162 76.3492C94.9758 74.1858 90.0212 73.0033 85.2637 72.27C74.7756 70.6709 64.0529 71.7752 54.1108 75.4783L52.4471 76.12C42.3546 80.1533 33.3254 80.1442 26.8262 79.145C23.9204 78.6958 20.9137 78.0313 18.15 76.9267L16.7887 76.3308C15.155 75.52 13.2661 75.3915 11.5376 75.9734C9.80902 76.5553 8.38244 77.8 7.57165 79.4337C6.76087 81.0675 6.63228 82.9564 7.21419 84.6849C7.7961 86.4135 9.04084 87.84 10.6746 88.6508C15.015 90.8187 19.9787 92.0012 24.7362 92.73C32.7662 93.9675 43.725 94.0133 55.8846 89.5217V89.5263Z" fill="#688BA7"/>
</svg>
