<svg width="78" height="78" viewBox="0 0 78 78" fill="none" xmlns="http://www.w3.org/2000/svg">
<path d="M55.25 58.5C56.9739 58.5 58.6272 59.1848 59.8462 60.4038C61.0652 61.6228 61.75 63.2761 61.75 65C61.75 66.7239 61.0652 68.3772 59.8462 69.5962C58.6272 70.8152 56.9739 71.5 55.25 71.5C53.5261 71.5 51.8728 70.8152 50.6538 69.5962C49.4348 68.3772 48.75 66.7239 48.75 65C48.75 61.3925 51.6425 58.5 55.25 58.5ZM3.25 6.5H13.8775L16.9325 13H65C65.862 13 66.6886 13.3424 67.2981 13.9519C67.9076 14.5614 68.25 15.388 68.25 16.25C68.25 16.8025 68.0875 17.355 67.86 17.875L56.225 38.9025C55.12 40.885 52.975 42.25 50.5375 42.25H26.325L23.4 47.5475L23.3025 47.9375C23.3025 48.153 23.3881 48.3597 23.5405 48.512C23.6928 48.6644 23.8995 48.75 24.115 48.75H61.75V55.25H22.75C21.0261 55.25 19.3728 54.5652 18.1538 53.3462C16.9348 52.1272 16.25 50.4739 16.25 48.75C16.25 47.6125 16.5425 46.54 17.03 45.63L21.45 37.6675L9.75 13H3.25V6.5ZM22.75 58.5C24.4739 58.5 26.1272 59.1848 27.3462 60.4038C28.5652 61.6228 29.25 63.2761 29.25 65C29.25 66.7239 28.5652 68.3772 27.3462 69.5962C26.1272 70.8152 24.4739 71.5 22.75 71.5C21.0261 71.5 19.3728 70.8152 18.1538 69.5962C16.9348 68.3772 16.25 66.7239 16.25 65C16.25 61.3925 19.1425 58.5 22.75 58.5ZM52 35.75L61.035 19.5H19.955L27.625 35.75H52Z" fill="#A79168"/>
</svg>
