<svg width="276" height="172" viewBox="0 0 276 172" fill="none" xmlns="http://www.w3.org/2000/svg">
<path d="M109.546 25.28C108.826 25.688 108.058 25.928 107.242 26C106.45 26.048 105.706 25.94 105.01 25.676C104.314 25.388 103.75 24.968 103.318 24.416C103.078 24.104 102.85 23.612 102.634 22.94C102.418 22.244 102.382 21.308 102.526 20.132C102.67 19.028 103.006 17.912 103.534 16.784C104.086 15.656 104.758 14.66 105.55 13.796C106.342 12.932 107.206 12.344 108.142 12.032C108.478 11.912 108.814 11.828 109.15 11.78C109.51 11.708 109.978 11.696 110.554 11.744C111.106 11.816 111.598 11.96 112.03 12.176C112.462 12.368 112.774 12.584 112.966 12.824C113.35 13.208 113.602 13.58 113.722 13.94C113.842 14.3 113.89 14.648 113.866 14.984C113.746 15.752 113.398 16.58 112.822 17.468C112.27 18.356 111.49 19.016 110.482 19.448C110.074 19.616 109.594 19.724 109.042 19.772C108.49 19.82 107.734 19.748 106.774 19.556C106.198 19.436 105.814 19.496 105.622 19.736C105.454 19.976 105.382 20.444 105.406 21.14C105.454 21.572 105.55 21.956 105.694 22.292C105.862 22.604 106.162 22.82 106.594 22.94C107.146 23.036 107.542 23.048 107.782 22.976C108.022 22.88 108.322 22.748 108.682 22.58C108.874 22.46 109.054 22.328 109.222 22.184C109.414 22.04 109.594 21.896 109.762 21.752C109.954 21.608 110.11 21.5 110.23 21.428C110.35 21.332 110.47 21.272 110.59 21.248C110.71 21.224 110.83 21.212 110.95 21.212C111.214 21.236 111.466 21.38 111.706 21.644C111.946 21.908 112.102 22.16 112.174 22.4C112.174 22.592 112.054 22.868 111.814 23.228C111.574 23.564 111.25 23.924 110.842 24.308C110.458 24.668 110.026 24.992 109.546 25.28ZM109.078 17.252C109.246 17.18 109.486 17.012 109.798 16.748C110.134 16.484 110.434 16.208 110.698 15.92C110.962 15.608 111.094 15.368 111.094 15.2C111.094 14.936 110.914 14.708 110.554 14.516C110.218 14.324 109.774 14.288 109.222 14.408C109.03 14.456 108.802 14.588 108.538 14.804C108.274 15.02 108.01 15.272 107.746 15.56C107.482 15.824 107.254 16.088 107.062 16.352C106.87 16.592 106.738 16.784 106.666 16.928C106.762 17.048 106.954 17.144 107.242 17.216C107.53 17.288 107.842 17.324 108.178 17.324C108.538 17.324 108.838 17.3 109.078 17.252ZM117.141 19.808C116.997 19.808 116.817 19.808 116.601 19.808C116.385 19.784 116.145 19.724 115.881 19.628C115.521 19.628 115.233 19.556 115.017 19.412C114.825 19.244 114.681 19.076 114.585 18.908C114.321 18.548 114.333 18.272 114.621 18.08C114.933 17.864 115.533 17.708 116.421 17.612C117.237 17.42 118.041 17.288 118.833 17.216C119.625 17.144 120.501 17.108 121.461 17.108C122.085 17.108 122.589 17.168 122.973 17.288C123.381 17.408 123.717 17.6 123.981 17.864C124.341 18.224 124.425 18.608 124.233 19.016C124.041 19.4 123.669 19.544 123.117 19.448C122.949 19.472 122.589 19.496 122.037 19.52C121.509 19.544 121.029 19.58 120.597 19.628C120.333 19.652 119.865 19.688 119.193 19.736C118.521 19.784 117.837 19.808 117.141 19.808ZM130.72 28.376C130.36 28.232 129.94 28.028 129.46 27.764C128.98 27.524 128.524 27.2 128.092 26.792C127.66 26.384 127.324 25.892 127.084 25.316C126.844 24.62 126.676 23.936 126.58 23.264C126.508 22.592 126.484 21.812 126.508 20.924C126.508 19.676 126.592 18.596 126.76 17.684C126.952 16.748 127.24 15.8 127.624 14.84C127.672 14.768 127.756 14.564 127.876 14.228C128.02 13.868 128.176 13.484 128.344 13.076C128.536 12.668 128.68 12.356 128.776 12.14C128.968 11.732 129.256 11.192 129.64 10.52C130.048 9.824 130.48 9.152 130.936 8.504C131.632 7.472 132.22 6.632 132.7 5.984C133.18 5.312 133.636 4.748 134.068 4.292C134.524 3.836 135.016 3.392 135.544 2.96C136.096 2.528 136.78 2.036 137.596 1.484C138.124 1.1 138.796 0.859999 139.612 0.763999C140.452 0.667999 141.268 0.799998 142.06 1.16C142.852 1.496 143.44 2.144 143.824 3.104C144.088 3.608 144.208 4.244 144.184 5.012C144.16 5.756 144.016 6.56 143.752 7.424C143.488 8.264 143.152 9.056 142.744 9.8C142.336 10.544 141.88 11.144 141.376 11.6C141.064 11.888 140.644 11.936 140.116 11.744C139.612 11.552 139.192 11.3 138.856 10.988C138.64 10.58 138.52 10.34 138.496 10.268C138.496 10.196 138.544 10.148 138.64 10.124C138.784 9.956 138.976 9.668 139.216 9.26C139.456 8.852 139.696 8.42 139.936 7.964C140.176 7.484 140.344 7.1 140.44 6.812C140.632 5.804 140.764 5.144 140.836 4.832C140.908 4.496 140.836 4.22 140.62 4.004C140.524 3.908 140.38 3.872 140.188 3.896C140.02 3.92 139.732 4.04 139.324 4.256C138.772 4.496 138.112 4.988 137.344 5.732C136.6 6.452 135.856 7.316 135.112 8.324C134.152 9.596 133.348 10.724 132.7 11.708C132.052 12.692 131.56 13.7 131.224 14.732C131.176 14.828 131.092 15.008 130.972 15.272C130.876 15.536 130.828 15.668 130.828 15.668C130.852 15.764 130.816 16.004 130.72 16.388C130.624 16.748 130.516 17.06 130.396 17.324C130.132 18.428 129.976 19.496 129.928 20.528C129.88 21.536 129.94 22.424 130.108 23.192C130.3 23.936 130.576 24.488 130.936 24.848C131.248 25.064 131.644 25.136 132.124 25.064C132.604 24.992 133.156 24.824 133.78 24.56C134.404 24.296 135.076 24.008 135.796 23.696C136.372 23.456 136.9 23.192 137.38 22.904C137.86 22.616 138.22 22.364 138.46 22.148C138.652 22.004 138.892 21.86 139.18 21.716C139.492 21.548 139.756 21.464 139.972 21.464C140.308 21.344 140.56 21.44 140.728 21.752C140.896 22.064 140.98 22.46 140.98 22.94C140.98 23.276 140.74 23.684 140.26 24.164C139.78 24.644 139.252 25.052 138.676 25.388C138.484 25.58 138.22 25.76 137.884 25.928C137.572 26.072 137.248 26.204 136.912 26.324C136.408 26.708 135.784 27.08 135.04 27.44C134.296 27.8 133.54 28.076 132.772 28.268C132.028 28.46 131.344 28.496 130.72 28.376ZM144.384 25.244C144.288 25.052 144.072 24.86 143.736 24.668C143.424 24.476 143.268 24.332 143.268 24.236C143.268 24.14 143.208 23.996 143.088 23.804C142.992 23.588 142.896 23.432 142.8 23.336C142.68 23.192 142.716 22.844 142.908 22.292C143.1 21.716 143.388 21.02 143.772 20.204C144.156 19.388 144.576 18.56 145.032 17.72C145.224 17.528 145.416 17.276 145.608 16.964C145.8 16.652 145.944 16.448 146.04 16.352C146.04 16.256 146.076 16.172 146.148 16.1C146.22 16.004 146.304 15.956 146.4 15.956L146.688 15.38C146.736 15.284 146.88 15.092 147.12 14.804C147.384 14.516 147.696 14.204 148.056 13.868C148.416 13.508 148.776 13.172 149.136 12.86C149.52 12.548 149.832 12.32 150.072 12.176C150.576 11.84 151.092 11.684 151.62 11.708C152.172 11.732 152.64 11.9 153.024 12.212C153.096 12.284 153.252 12.428 153.492 12.644C153.756 12.86 154.044 13.1 154.356 13.364C154.692 13.628 154.98 13.868 155.22 14.084L156.552 15.272L155.94 17.072C155.628 18.032 155.544 18.872 155.688 19.592C155.832 20.312 156.06 20.936 156.372 21.464C156.492 21.728 156.648 21.932 156.84 22.076C157.056 22.22 157.332 22.316 157.668 22.364C157.86 22.388 158.04 22.46 158.208 22.58C158.376 22.7 158.46 22.892 158.46 23.156C158.46 23.732 158.352 24.152 158.136 24.416C157.944 24.656 157.728 24.8 157.488 24.848C156.696 24.944 155.94 24.86 155.22 24.596C154.5 24.332 153.852 23.648 153.276 22.544C153.18 22.4 153.048 22.136 152.88 21.752C152.736 21.344 152.652 21.08 152.628 20.96C152.532 21.08 152.4 21.236 152.232 21.428C152.088 21.596 151.944 21.752 151.8 21.896C150.096 23.624 148.632 24.752 147.408 25.28C146.208 25.784 145.2 25.772 144.384 25.244ZM146.364 22.256C146.532 22.28 146.796 22.196 147.156 22.004C147.516 21.788 147.996 21.44 148.596 20.96C149.412 20.264 150.084 19.688 150.612 19.232C151.14 18.776 151.656 18.188 152.16 17.468L152.952 16.172C152.712 15.62 152.496 15.26 152.304 15.092C152.112 14.924 151.92 14.84 151.728 14.84C151.416 14.84 151.044 15.044 150.612 15.452C150.18 15.836 149.688 16.412 149.136 17.18C148.608 17.924 148.008 18.86 147.336 19.988C147.024 20.516 146.784 21.032 146.616 21.536C146.448 22.016 146.364 22.256 146.364 22.256ZM171.934 25.136C171.406 25.088 170.962 24.98 170.602 24.812C170.266 24.62 169.99 24.248 169.774 23.696C169.678 23.312 169.63 22.916 169.63 22.508C169.654 22.076 169.69 21.668 169.738 21.284C169.786 20.876 169.81 20.528 169.81 20.24C169.81 20.192 169.81 20.096 169.81 19.952C169.81 19.808 169.81 19.676 169.81 19.556C169.762 19.196 169.666 18.98 169.522 18.908C169.402 18.812 169.186 18.824 168.874 18.944C168.37 19.184 167.818 19.508 167.218 19.916C166.642 20.3 166.03 20.756 165.382 21.284C164.758 21.788 164.11 22.328 163.438 22.904C162.91 23.48 162.514 23.948 162.25 24.308C162.01 24.668 161.758 24.848 161.494 24.848C161.302 24.944 161.098 24.92 160.882 24.776C160.666 24.632 160.438 24.464 160.198 24.272C160.03 24.08 159.826 23.84 159.586 23.552C159.37 23.24 159.238 23.036 159.19 22.94C159.19 22.556 159.214 22.208 159.262 21.896C159.334 21.584 159.43 21.26 159.55 20.924C159.694 20.588 159.862 20.204 160.054 19.772C160.15 19.604 160.234 19.436 160.306 19.268C160.402 19.076 160.51 18.872 160.63 18.656C160.726 18.32 160.858 17.936 161.026 17.504C161.218 17.072 161.398 16.664 161.566 16.28C161.83 15.656 162.034 15.116 162.178 14.66C162.322 14.204 162.442 13.712 162.538 13.184C162.514 13.136 162.526 13.064 162.574 12.968C162.622 12.872 162.694 12.812 162.79 12.788H162.826H162.862C163.03 12.668 163.342 12.656 163.798 12.752C164.278 12.824 164.638 12.956 164.878 13.148C165.382 13.58 165.622 14.144 165.598 14.84C165.574 15.536 165.214 16.448 164.518 17.576C164.35 17.96 164.17 18.32 163.978 18.656C163.81 18.968 163.726 19.184 163.726 19.304C163.726 19.304 163.822 19.232 164.014 19.088C164.206 18.944 164.434 18.776 164.698 18.584C164.962 18.368 165.19 18.2 165.382 18.08C165.502 17.96 165.766 17.744 166.174 17.432C166.582 17.096 167.026 16.748 167.506 16.388C167.986 16.028 168.37 15.752 168.658 15.56C168.922 15.368 169.258 15.176 169.666 14.984C170.074 14.768 170.326 14.66 170.422 14.66C170.662 14.66 170.95 14.744 171.286 14.912C171.646 15.08 171.97 15.284 172.258 15.524C172.57 15.74 172.75 15.944 172.798 16.136C172.798 16.232 172.786 16.364 172.762 16.532C172.738 16.676 172.726 16.808 172.726 16.928C172.702 17.312 172.69 17.78 172.69 18.332C172.714 18.86 172.726 19.4 172.726 19.952C172.726 20.48 172.678 20.96 172.582 21.392C172.582 21.392 172.594 21.416 172.618 21.464C172.642 21.488 172.666 21.536 172.69 21.608C172.666 21.632 172.654 21.68 172.654 21.752C172.678 21.8 172.69 21.824 172.69 21.824C172.738 21.992 172.786 22.16 172.834 22.328C172.906 22.496 172.99 22.688 173.086 22.904C173.182 23.096 173.29 23.348 173.41 23.66C173.386 23.972 173.206 24.284 172.87 24.596C172.558 24.884 172.246 25.064 171.934 25.136ZM180.79 26.216C180.454 26.12 180.118 25.952 179.782 25.712C179.446 25.472 179.098 25.196 178.738 24.884C178.45 24.5 178.246 24.152 178.126 23.84C178.006 23.504 177.934 23.12 177.91 22.688C177.91 22.232 177.91 21.656 177.91 20.96C177.91 20.672 177.958 20.264 178.054 19.736C178.174 19.208 178.294 18.656 178.414 18.08C178.558 17.504 178.69 17 178.81 16.568C178.93 16.112 179.002 15.812 179.026 15.668C179.098 15.356 178.978 15.176 178.666 15.128C178.354 15.08 178.006 15.068 177.622 15.092C177.262 15.092 177.022 15.056 176.902 14.984C176.806 14.96 176.758 14.84 176.758 14.624C176.758 14.384 176.758 14.264 176.758 14.264C176.758 14.168 176.71 14.108 176.614 14.084C176.518 14.036 176.434 13.952 176.362 13.832C176.314 13.736 176.374 13.556 176.542 13.292C176.71 13.028 176.926 12.872 177.19 12.824C177.406 12.776 177.73 12.74 178.162 12.716C178.594 12.668 179.026 12.584 179.458 12.464C179.914 12.32 180.262 12.104 180.502 11.816C180.718 11.288 180.958 10.724 181.222 10.124C181.486 9.5 181.738 8.96 181.978 8.504C182.218 8.024 182.386 7.724 182.482 7.604C182.89 7.388 183.31 7.304 183.742 7.352C184.174 7.376 184.51 7.58 184.75 7.964C184.87 8.132 184.966 8.252 185.038 8.324C185.134 8.396 185.17 8.504 185.146 8.648C185.146 8.792 185.05 9.056 184.858 9.44C184.69 9.8 184.402 10.364 183.994 11.132C183.874 11.372 183.766 11.588 183.67 11.78C183.574 11.948 183.526 12.032 183.526 12.032C183.622 12.056 183.766 12.068 183.958 12.068C184.15 12.068 184.39 12.056 184.678 12.032C184.942 11.984 185.23 11.948 185.542 11.924C185.854 11.876 186.13 11.876 186.37 11.924C186.922 11.924 187.33 12.08 187.594 12.392C187.858 12.704 188.002 13.1 188.026 13.58C188.074 13.844 187.978 14.072 187.738 14.264C187.498 14.456 187.054 14.552 186.406 14.552C186.19 14.552 185.878 14.564 185.47 14.588C185.062 14.612 184.642 14.636 184.21 14.66C183.778 14.684 183.406 14.72 183.094 14.768C182.806 14.792 182.662 14.828 182.662 14.876C182.59 14.924 182.47 15.116 182.302 15.452C182.158 15.764 182.002 16.148 181.834 16.604C181.69 17.06 181.558 17.492 181.438 17.9C181.27 18.716 181.15 19.508 181.078 20.276C181.006 21.044 180.994 21.716 181.042 22.292C181.114 22.844 181.258 23.24 181.474 23.48C181.69 23.696 182.014 23.696 182.446 23.48C182.902 23.24 183.322 22.964 183.706 22.652C184.138 22.292 184.51 22.184 184.822 22.328C185.134 22.448 185.326 22.712 185.398 23.12C185.494 23.504 185.386 23.924 185.074 24.38C184.786 24.836 184.378 25.22 183.85 25.532C183.322 25.844 182.782 26.06 182.23 26.18C181.678 26.324 181.198 26.336 180.79 26.216ZM191.664 26.648C190.344 26.648 189.324 26.264 188.604 25.496C187.908 24.728 187.56 23.552 187.56 21.968C187.56 21.104 187.716 20.156 188.028 19.124C188.364 18.092 188.796 17.084 189.324 16.1C189.876 15.116 190.476 14.264 191.124 13.544C191.772 12.8 192.42 12.284 193.068 11.996C193.308 11.876 193.56 11.792 193.824 11.744C194.112 11.672 194.388 11.636 194.652 11.636C194.94 11.636 195.252 11.66 195.588 11.708C195.948 11.732 196.284 11.804 196.596 11.924C197.148 12.092 197.628 12.416 198.036 12.896C198.468 13.376 198.684 14.072 198.684 14.984C198.684 15.224 198.66 15.488 198.612 15.776C198.564 16.04 198.48 16.304 198.36 16.568C198.048 17.36 197.568 18.116 196.92 18.836C196.296 19.556 195.636 20.06 194.94 20.348C194.748 20.444 194.556 20.516 194.364 20.564C194.196 20.588 194.016 20.6 193.824 20.6C193.32 20.6 192.864 20.528 192.456 20.384C192.072 20.24 191.712 20.048 191.376 19.808L191.088 19.556L190.908 19.916C190.74 20.372 190.62 20.756 190.548 21.068C190.5 21.38 190.476 21.608 190.476 21.752C190.476 22.04 190.488 22.34 190.512 22.652C190.536 22.94 190.608 23.18 190.728 23.372C190.824 23.492 190.944 23.588 191.088 23.66C191.256 23.732 191.46 23.768 191.7 23.768C191.844 23.768 191.976 23.768 192.096 23.768C192.24 23.744 192.36 23.72 192.456 23.696C192.888 23.6 193.236 23.444 193.5 23.228C193.788 22.988 194.088 22.784 194.4 22.616L194.544 22.544L194.508 22.436C194.916 22.22 195.192 22.088 195.336 22.04C195.48 21.968 195.588 21.908 195.66 21.86C195.756 21.764 195.864 21.716 195.984 21.716C196.32 21.668 196.644 21.764 196.956 22.004C197.292 22.22 197.46 22.496 197.46 22.832C197.46 22.976 197.352 23.204 197.136 23.516C196.944 23.828 196.692 24.14 196.38 24.452C196.092 24.74 195.792 24.968 195.48 25.136C195.408 25.16 195.336 25.196 195.264 25.244C195.192 25.268 195.12 25.304 195.048 25.352H195.084C194.868 25.64 194.652 25.784 194.436 25.784H194.148C194.052 25.952 193.74 26.132 193.212 26.324C192.684 26.54 192.168 26.648 191.664 26.648ZM193.536 17.972C193.752 17.972 193.944 17.936 194.112 17.864C194.304 17.792 194.484 17.708 194.652 17.612C195.228 17.204 195.6 16.676 195.768 16.028C195.936 15.38 195.876 14.888 195.588 14.552C195.54 14.48 195.48 14.432 195.408 14.408C195.336 14.36 195.252 14.336 195.156 14.336C194.892 14.336 194.592 14.42 194.256 14.588C193.944 14.756 193.632 14.996 193.32 15.308C193.008 15.62 192.72 15.992 192.456 16.424L191.988 17.18C192.036 17.156 192.072 17.144 192.096 17.144C192.144 17.12 192.18 17.108 192.204 17.108C192.42 17.108 192.564 17.18 192.636 17.324C192.708 17.468 192.792 17.612 192.888 17.756C193.008 17.9 193.224 17.972 193.536 17.972ZM202.463 25.676C201.527 25.292 200.879 24.668 200.519 23.804C200.159 22.94 200.063 21.788 200.231 20.348C200.279 19.604 200.255 19.112 200.159 18.872C200.063 18.608 199.883 18.356 199.619 18.116C199.547 18.02 199.379 17.864 199.115 17.648C198.851 17.408 198.731 17.228 198.755 17.108C198.731 16.94 198.767 16.736 198.863 16.496C198.959 16.232 199.043 16.088 199.115 16.064C199.283 15.992 199.451 15.908 199.619 15.812C199.811 15.716 199.955 15.692 200.051 15.74C200.147 15.74 200.291 15.8 200.483 15.92C200.699 16.04 200.807 16.148 200.807 16.244C200.903 16.412 201.047 16.34 201.239 16.028C201.455 15.716 201.683 15.32 201.923 14.84C202.163 14.456 202.463 14.096 202.823 13.76C203.183 13.424 203.543 13.124 203.903 12.86C204.287 12.572 204.611 12.356 204.875 12.212C204.995 12.164 205.223 12.092 205.559 11.996C205.919 11.9 206.291 11.828 206.675 11.78C207.059 11.708 207.347 11.684 207.539 11.708C207.971 11.732 208.427 11.912 208.907 12.248C209.387 12.584 209.759 12.896 210.023 13.184C210.335 13.4 210.539 13.736 210.635 14.192C210.755 14.624 210.803 15.08 210.779 15.56C210.755 16.04 210.659 16.448 210.491 16.784C210.419 17.024 210.167 17.36 209.735 17.792C209.303 18.224 208.823 18.644 208.295 19.052C207.791 19.436 207.359 19.7 206.999 19.844C206.687 19.916 206.315 19.976 205.883 20.024C205.451 20.048 205.043 20.048 204.659 20.024C204.299 19.976 204.047 19.916 203.903 19.844C203.735 19.748 203.591 19.784 203.471 19.952C203.375 20.096 203.291 20.504 203.219 21.176C203.195 21.44 203.195 21.668 203.219 21.86C203.267 22.052 203.315 22.196 203.363 22.292C203.531 22.58 203.699 22.796 203.867 22.94C204.035 23.06 204.347 23.096 204.803 23.048C205.259 23 205.715 22.724 206.171 22.22C206.651 21.692 207.083 21.272 207.467 20.96C207.563 20.792 207.767 20.684 208.079 20.636C208.415 20.564 208.811 20.588 209.267 20.708C209.531 20.876 209.651 21.14 209.627 21.5C209.627 21.86 209.435 22.388 209.051 23.084C208.979 23.252 208.775 23.504 208.439 23.84C208.127 24.152 207.779 24.476 207.395 24.812C207.035 25.124 206.735 25.352 206.495 25.496C205.775 25.88 205.067 26.06 204.371 26.036C203.675 26.012 203.039 25.892 202.463 25.676ZM205.127 17.576C205.487 17.48 205.787 17.384 206.027 17.288C206.291 17.192 206.543 17.036 206.783 16.82C207.023 16.604 207.299 16.28 207.611 15.848C207.707 15.584 207.755 15.356 207.755 15.164C207.779 14.972 207.767 14.852 207.719 14.804C207.527 14.612 207.311 14.552 207.071 14.624C206.855 14.672 206.615 14.792 206.351 14.984C206.183 15.056 205.943 15.212 205.631 15.452C205.343 15.668 205.055 15.92 204.767 16.208C204.503 16.472 204.287 16.724 204.119 16.964C203.975 17.18 203.951 17.312 204.047 17.36C203.999 17.456 204.131 17.516 204.443 17.54C204.779 17.564 205.007 17.576 205.127 17.576ZM213.947 24.776C213.851 24.776 213.623 24.692 213.263 24.524C212.903 24.332 212.675 24.188 212.579 24.092C212.411 23.9 212.303 23.696 212.255 23.48C212.207 23.24 212.183 22.784 212.183 22.112C212.183 21.344 212.339 20.48 212.651 19.52C212.963 18.536 213.491 17.228 214.235 15.596L215.711 12.608C215.831 12.44 215.939 12.296 216.035 12.176C216.131 12.032 216.239 11.9 216.359 11.78C216.407 11.78 216.467 11.78 216.539 11.78C216.635 11.78 216.707 11.792 216.755 11.816C216.971 11.84 217.307 11.972 217.763 12.212C218.243 12.452 218.531 12.812 218.627 13.292C218.627 13.604 218.579 13.976 218.483 14.408C218.387 14.816 218.099 15.356 217.619 16.028C217.427 16.268 217.235 16.616 217.043 17.072C216.875 17.528 216.719 17.96 216.575 18.368C216.551 18.416 216.479 18.536 216.359 18.728C216.263 18.896 216.167 19.076 216.071 19.268C215.975 19.436 215.927 19.544 215.927 19.592L215.783 19.916L217.331 18.404C218.411 17.324 219.323 16.556 220.067 16.1C220.811 15.644 221.435 15.452 221.939 15.524C222.467 15.596 222.887 15.896 223.199 16.424C223.367 16.664 223.487 16.928 223.559 17.216C223.631 17.48 223.679 17.792 223.703 18.152C223.727 18.512 223.715 18.968 223.667 19.52V21.572C224.123 21.452 224.471 21.356 224.711 21.284C224.951 21.188 225.191 21.104 225.431 21.032C225.623 20.984 225.815 20.936 226.007 20.888C226.223 20.84 226.487 20.804 226.799 20.78C226.775 21.092 226.643 21.476 226.403 21.932C226.163 22.388 225.863 22.844 225.503 23.3C225.167 23.756 224.795 24.14 224.387 24.452C224.003 24.764 223.643 24.92 223.307 24.92C222.995 24.92 222.635 24.824 222.227 24.632C221.819 24.416 221.471 24.008 221.183 23.408C221.087 23.096 220.991 22.736 220.895 22.328C220.799 21.92 220.751 21.488 220.751 21.032V19.448C220.751 19.304 220.739 19.208 220.715 19.16C220.715 19.088 220.703 19.052 220.679 19.052C220.583 19.052 220.271 19.304 219.743 19.808C219.239 20.312 218.723 20.84 218.195 21.392C217.091 22.544 216.167 23.396 215.423 23.948C214.703 24.5 214.211 24.776 213.947 24.776ZM107.062 55.908C106.63 55.932 106.27 55.728 105.982 55.296C105.694 54.864 105.562 54.504 105.586 54.216C105.61 53.832 105.718 53.28 105.91 52.56C106.102 51.84 106.318 51.108 106.558 50.364C106.798 49.62 107.014 49.032 107.206 48.6C107.302 48.216 107.386 47.88 107.458 47.592C107.554 47.28 107.614 47.076 107.638 46.98C107.71 46.884 107.818 46.632 107.962 46.224C108.13 45.816 108.262 45.42 108.358 45.036C108.406 44.844 108.502 44.484 108.646 43.956C108.814 43.404 109.006 42.768 109.222 42.048C109.462 41.328 109.69 40.62 109.906 39.924C110.146 39.228 110.35 38.616 110.518 38.088C110.686 37.56 110.794 37.212 110.842 37.044C111.034 36.756 111.178 36.48 111.274 36.216C111.37 35.952 111.43 35.772 111.454 35.676C111.598 35.58 111.682 35.46 111.706 35.316C111.73 35.148 111.742 35.016 111.742 34.92C111.742 34.8 111.778 34.704 111.85 34.632C111.946 34.56 111.994 34.476 111.994 34.38C112.09 34.308 112.15 34.296 112.174 34.344C112.198 34.392 112.27 34.356 112.39 34.236L112.57 33.012L115.774 32.976C115.726 33.264 115.654 33.624 115.558 34.056C115.462 34.464 115.234 35.016 114.874 35.712C114.754 36.192 114.61 36.624 114.442 37.008C114.298 37.392 114.238 37.644 114.262 37.764C114.214 37.812 114.106 38.052 113.938 38.484C113.794 38.916 113.614 39.444 113.398 40.068C113.206 40.692 113.002 41.316 112.786 41.94C112.594 42.564 112.414 43.116 112.246 43.596C112.102 44.052 112.006 44.34 111.958 44.46C111.766 44.844 111.55 45.408 111.31 46.152C111.07 46.896 110.71 47.904 110.23 49.176C110.038 49.56 109.798 50.136 109.51 50.904C109.246 51.672 109.03 52.368 108.862 52.992C108.598 53.928 108.358 54.6 108.142 55.008C107.95 55.416 107.77 55.656 107.602 55.728C107.434 55.824 107.254 55.884 107.062 55.908ZM107.386 34.74C106.402 34.836 105.73 34.716 105.37 34.38C105.034 34.044 104.914 33.684 105.01 33.3C105.082 33.012 105.25 32.772 105.514 32.58C105.802 32.364 106.318 32.184 107.062 32.04C107.326 31.992 107.662 31.932 108.07 31.86C108.502 31.788 108.91 31.716 109.294 31.644C110.086 31.548 110.734 31.464 111.238 31.392C111.766 31.32 112.306 31.26 112.858 31.212C113.41 31.164 114.106 31.116 114.946 31.068C115.642 31.02 116.23 30.984 116.71 30.96C117.214 30.912 117.466 30.888 117.466 30.888C117.538 30.888 117.79 30.912 118.222 30.96C118.654 31.008 119.122 31.068 119.626 31.14C120.13 31.212 120.502 31.296 120.742 31.392C121.294 31.512 121.738 31.728 122.074 32.04C122.41 32.352 122.626 32.712 122.722 33.12C122.794 33.408 122.794 33.636 122.722 33.804C122.65 33.948 122.518 34.068 122.326 34.164C121.774 34.332 121.318 34.476 120.958 34.596C120.622 34.692 120.286 34.68 119.95 34.56C119.83 34.44 119.686 34.332 119.518 34.236C119.374 34.14 119.11 34.068 118.726 34.02C118.366 33.948 117.79 33.888 116.998 33.84C116.326 33.912 115.738 33.948 115.234 33.948C114.73 33.948 114.478 34.008 114.478 34.128L112.354 34.236L110.59 34.416C110.35 34.44 110.014 34.476 109.582 34.524C109.15 34.548 108.73 34.584 108.322 34.632C107.914 34.656 107.602 34.692 107.386 34.74ZM122.8 53.28C122.08 53.688 121.312 53.928 120.496 54C119.704 54.048 118.96 53.94 118.264 53.676C117.568 53.388 117.004 52.968 116.572 52.416C116.332 52.104 116.104 51.612 115.888 50.94C115.672 50.244 115.636 49.308 115.78 48.132C115.924 47.028 116.26 45.912 116.788 44.784C117.34 43.656 118.012 42.66 118.804 41.796C119.596 40.932 120.46 40.344 121.396 40.032C121.732 39.912 122.068 39.828 122.404 39.78C122.764 39.708 123.232 39.696 123.808 39.744C124.36 39.816 124.852 39.96 125.284 40.176C125.716 40.368 126.028 40.584 126.22 40.824C126.604 41.208 126.856 41.58 126.976 41.94C127.096 42.3 127.144 42.648 127.12 42.984C127 43.752 126.652 44.58 126.076 45.468C125.524 46.356 124.744 47.016 123.736 47.448C123.328 47.616 122.848 47.724 122.296 47.772C121.744 47.82 120.988 47.748 120.028 47.556C119.452 47.436 119.068 47.496 118.876 47.736C118.708 47.976 118.636 48.444 118.66 49.14C118.708 49.572 118.804 49.956 118.948 50.292C119.116 50.604 119.416 50.82 119.848 50.94C120.4 51.036 120.796 51.048 121.036 50.976C121.276 50.88 121.576 50.748 121.936 50.58C122.128 50.46 122.308 50.328 122.476 50.184C122.668 50.04 122.848 49.896 123.016 49.752C123.208 49.608 123.364 49.5 123.484 49.428C123.604 49.332 123.724 49.272 123.844 49.248C123.964 49.224 124.084 49.212 124.204 49.212C124.468 49.236 124.72 49.38 124.96 49.644C125.2 49.908 125.356 50.16 125.428 50.4C125.428 50.592 125.308 50.868 125.068 51.228C124.828 51.564 124.504 51.924 124.096 52.308C123.712 52.668 123.28 52.992 122.8 53.28ZM122.332 45.252C122.5 45.18 122.74 45.012 123.052 44.748C123.388 44.484 123.688 44.208 123.952 43.92C124.216 43.608 124.348 43.368 124.348 43.2C124.348 42.936 124.168 42.708 123.808 42.516C123.472 42.324 123.028 42.288 122.476 42.408C122.284 42.456 122.056 42.588 121.792 42.804C121.528 43.02 121.264 43.272 121 43.56C120.736 43.824 120.508 44.088 120.316 44.352C120.124 44.592 119.992 44.784 119.92 44.928C120.016 45.048 120.208 45.144 120.496 45.216C120.784 45.288 121.096 45.324 121.432 45.324C121.792 45.324 122.092 45.3 122.332 45.252ZM132.231 54.144C131.535 54.264 130.839 54.204 130.143 53.964C129.471 53.724 128.907 53.34 128.451 52.812C128.019 52.26 127.803 51.6 127.803 50.832C127.731 50.112 127.791 49.26 127.983 48.276C128.199 47.268 128.511 46.26 128.919 45.252C129.351 44.244 129.843 43.392 130.395 42.696C130.875 42.12 131.355 41.592 131.835 41.112C132.315 40.632 132.747 40.308 133.131 40.14C133.467 39.996 133.875 39.888 134.355 39.816C134.859 39.72 135.207 39.672 135.399 39.672C135.783 39.768 136.203 39.924 136.659 40.14C137.139 40.356 137.379 40.608 137.379 40.896C137.379 40.896 137.403 40.932 137.451 41.004C137.523 41.052 137.559 41.076 137.559 41.076C137.703 41.076 137.859 41.256 138.027 41.616C138.219 41.952 138.363 42.348 138.459 42.804C138.555 43.236 138.531 43.584 138.387 43.848C138.291 44.304 138.099 44.748 137.811 45.18C137.547 45.612 137.319 45.828 137.127 45.828C137.031 45.828 136.935 45.84 136.839 45.864C136.767 45.864 136.731 45.924 136.731 46.044C136.731 46.164 136.599 46.224 136.335 46.224C136.095 46.224 135.843 46.176 135.579 46.08C135.315 45.984 135.147 45.84 135.075 45.648C135.075 45.528 135.099 45.372 135.147 45.18C135.195 44.988 135.267 44.664 135.363 44.208C135.507 43.536 135.519 43.092 135.399 42.876C135.279 42.636 134.979 42.612 134.499 42.804C133.899 43.14 133.407 43.536 133.023 43.992C132.639 44.424 132.291 45.036 131.979 45.828C131.691 46.62 131.367 47.724 131.007 49.14C130.863 49.692 130.839 50.124 130.935 50.436C131.055 50.748 131.151 50.916 131.223 50.94C131.559 51.036 131.919 51.06 132.303 51.012C132.711 50.94 133.047 50.832 133.311 50.688C133.695 50.496 134.031 50.292 134.319 50.076C134.631 49.836 134.967 49.584 135.327 49.32C135.447 49.248 135.555 49.116 135.651 48.924C135.747 48.708 135.891 48.552 136.083 48.456C136.275 48.168 136.515 48.024 136.803 48.024C137.115 48 137.415 47.988 137.703 47.988C137.895 48.036 138.099 48.156 138.315 48.348C138.531 48.54 138.687 48.732 138.783 48.924C138.903 49.092 138.891 49.212 138.747 49.284C138.651 49.284 138.591 49.32 138.567 49.392C138.567 49.44 138.567 49.464 138.567 49.464C138.615 49.56 138.507 49.776 138.243 50.112C138.003 50.448 137.691 50.808 137.307 51.192C136.923 51.576 136.551 51.912 136.191 52.2C135.855 52.464 135.615 52.596 135.471 52.596C135.231 52.596 135.111 52.668 135.111 52.812C135.111 52.86 134.931 52.98 134.571 53.172C134.235 53.364 133.839 53.556 133.383 53.748C132.951 53.94 132.567 54.072 132.231 54.144ZM152.545 53.424C151.945 53.712 151.357 53.82 150.781 53.748C150.229 53.652 149.761 53.352 149.377 52.848C149.017 52.32 148.837 51.552 148.837 50.544C148.837 50.28 148.849 49.968 148.873 49.608C148.921 49.224 148.993 48.828 149.089 48.42C149.185 47.988 149.305 47.556 149.449 47.124C149.521 46.908 149.617 46.692 149.737 46.476C149.881 46.26 149.905 46.152 149.809 46.152C149.713 46.152 149.593 46.212 149.449 46.332C149.329 46.452 149.233 46.548 149.161 46.62C148.561 47.148 148.009 47.7 147.505 48.276C147.025 48.828 146.593 49.38 146.209 49.932C145.849 50.46 145.561 50.952 145.345 51.408C145.153 51.864 145.057 52.248 145.057 52.56C145.057 52.92 144.877 53.172 144.517 53.316C144.157 53.46 143.845 53.448 143.581 53.28C143.125 53.016 142.705 52.608 142.321 52.056C141.961 51.504 141.817 50.784 141.889 49.896C141.961 48.768 142.057 47.76 142.177 46.872C142.297 45.984 142.489 45.024 142.753 43.992C143.041 42.936 143.413 41.652 143.869 40.14C144.181 39.3 144.469 38.508 144.733 37.764C144.997 36.996 145.225 36.348 145.417 35.82C145.633 35.292 145.765 34.968 145.813 34.848C145.933 34.728 146.089 34.44 146.281 33.984C146.473 33.504 146.641 33.024 146.785 32.544C146.953 32.064 147.037 31.776 147.037 31.68C147.037 31.488 147.073 31.32 147.145 31.176C147.241 31.032 147.325 30.9 147.397 30.78C147.541 30.444 147.661 30.216 147.757 30.096C147.877 29.952 147.985 29.88 148.081 29.88C148.201 29.88 148.393 29.94 148.657 30.06C148.945 30.18 149.209 30.336 149.449 30.528C149.713 30.696 149.869 30.876 149.917 31.068C150.085 31.404 150.181 31.752 150.205 32.112C150.229 32.448 150.145 32.868 149.953 33.372C149.761 33.876 149.425 34.572 148.945 35.46C148.561 36.204 148.213 36.972 147.901 37.764C147.589 38.556 147.289 39.384 147.001 40.248C146.881 40.608 146.725 41.088 146.533 41.688C146.341 42.264 146.149 42.864 145.957 43.488C145.789 44.088 145.645 44.628 145.525 45.108C145.405 45.588 145.345 45.9 145.345 46.044C145.345 46.212 145.441 46.296 145.633 46.296C145.825 46.272 146.017 46.128 146.209 45.864C146.305 45.672 146.461 45.492 146.677 45.324C146.893 45.132 147.085 44.94 147.253 44.748C147.445 44.508 147.673 44.232 147.937 43.92C148.225 43.584 148.525 43.272 148.837 42.984C149.173 42.672 149.473 42.42 149.737 42.228C150.025 42.036 150.265 41.94 150.457 41.94C150.913 41.94 151.297 42.072 151.609 42.336C151.921 42.6 152.185 43.008 152.401 43.56C152.473 43.632 152.545 43.728 152.617 43.848C152.689 43.944 152.737 44.016 152.761 44.064C152.881 44.16 152.941 44.544 152.941 45.216C152.941 45.864 152.749 46.764 152.365 47.916C152.149 48.804 152.017 49.464 151.969 49.896C151.945 50.328 152.029 50.544 152.221 50.544C152.221 50.544 152.341 50.472 152.581 50.328C152.845 50.184 153.121 50.028 153.409 49.86C154.105 49.404 154.609 49.26 154.921 49.428C155.233 49.596 155.389 49.812 155.389 50.076C155.389 50.292 155.305 50.544 155.137 50.832C154.993 51.12 154.921 51.312 154.921 51.408C154.921 51.408 154.921 51.42 154.921 51.444C154.921 51.444 154.921 51.492 154.921 51.588C154.921 51.636 154.765 51.804 154.453 52.092C154.141 52.38 153.793 52.668 153.409 52.956C153.049 53.22 152.761 53.376 152.545 53.424ZM159.525 52.776C159.429 52.776 159.201 52.692 158.841 52.524C158.481 52.332 158.253 52.188 158.157 52.092C157.989 51.9 157.881 51.696 157.833 51.48C157.785 51.24 157.761 50.784 157.761 50.112C157.761 49.344 157.917 48.48 158.229 47.52C158.541 46.536 159.069 45.228 159.813 43.596L161.289 40.608C161.409 40.44 161.517 40.296 161.613 40.176C161.709 40.032 161.817 39.9 161.937 39.78C161.985 39.78 162.045 39.78 162.117 39.78C162.213 39.78 162.285 39.792 162.333 39.816C162.549 39.84 162.885 39.972 163.341 40.212C163.821 40.452 164.109 40.812 164.205 41.292C164.205 41.604 164.157 41.976 164.061 42.408C163.965 42.816 163.677 43.356 163.197 44.028C163.005 44.268 162.813 44.616 162.621 45.072C162.453 45.528 162.297 45.96 162.153 46.368C162.129 46.416 162.057 46.536 161.937 46.728C161.841 46.896 161.745 47.076 161.649 47.268C161.553 47.436 161.505 47.544 161.505 47.592L161.361 47.916L162.909 46.404C163.989 45.324 164.901 44.556 165.645 44.1C166.389 43.644 167.013 43.452 167.517 43.524C168.045 43.596 168.465 43.896 168.777 44.424C168.945 44.664 169.065 44.928 169.137 45.216C169.209 45.48 169.257 45.792 169.281 46.152C169.305 46.512 169.293 46.968 169.245 47.52V49.572C169.701 49.452 170.049 49.356 170.289 49.284C170.529 49.188 170.769 49.104 171.009 49.032C171.201 48.984 171.393 48.936 171.585 48.888C171.801 48.84 172.065 48.804 172.377 48.78C172.353 49.092 172.221 49.476 171.981 49.932C171.741 50.388 171.441 50.844 171.081 51.3C170.745 51.756 170.373 52.14 169.965 52.452C169.581 52.764 169.221 52.92 168.885 52.92C168.573 52.92 168.213 52.824 167.805 52.632C167.397 52.416 167.049 52.008 166.761 51.408C166.665 51.096 166.569 50.736 166.473 50.328C166.377 49.92 166.329 49.488 166.329 49.032V47.448C166.329 47.304 166.317 47.208 166.293 47.16C166.293 47.088 166.281 47.052 166.257 47.052C166.161 47.052 165.849 47.304 165.321 47.808C164.817 48.312 164.301 48.84 163.773 49.392C162.669 50.544 161.745 51.396 161.001 51.948C160.281 52.5 159.789 52.776 159.525 52.776ZM177.596 53.712C177.092 53.808 176.708 53.784 176.444 53.64C176.204 53.472 175.952 53.268 175.688 53.028C175.304 52.836 174.956 52.572 174.644 52.236C174.332 51.876 174.092 51.504 173.924 51.12C173.756 50.736 173.684 50.436 173.708 50.22C173.78 49.38 173.972 48.468 174.284 47.484C174.62 46.5 175.04 45.54 175.544 44.604C176.072 43.668 176.66 42.84 177.308 42.12C177.98 41.376 178.7 40.836 179.468 40.5C179.948 40.308 180.464 40.236 181.016 40.284C181.568 40.332 181.94 40.56 182.132 40.968C182.492 41.664 182.408 42.108 181.88 42.3C181.808 42.3 181.724 42.336 181.628 42.408C181.532 42.456 181.484 42.528 181.484 42.624C181.58 42.672 181.844 42.684 182.276 42.66C182.708 42.612 183.14 42.54 183.572 42.444C184.028 42.324 184.328 42.204 184.472 42.084C184.616 42.012 184.724 41.976 184.796 41.976C184.868 41.976 185.048 42 185.336 42.048C185.744 42.168 185.948 42.312 185.948 42.48C185.948 42.576 185.984 42.732 186.056 42.948C186.128 43.14 186.212 43.236 186.308 43.236C186.476 43.26 186.512 43.428 186.416 43.74C186.344 44.052 186.068 44.376 185.588 44.712C185.132 45 184.844 45.192 184.724 45.288C184.628 45.36 184.616 45.528 184.688 45.792C184.88 46.248 184.868 46.8 184.652 47.448C184.436 48.096 184.076 48.768 183.572 49.464C183.068 50.16 182.468 50.82 181.772 51.444C181.1 52.044 180.392 52.56 179.648 52.992C178.928 53.4 178.244 53.64 177.596 53.712ZM177.704 50.688C177.8 50.688 177.968 50.64 178.208 50.544C178.448 50.424 178.64 50.328 178.784 50.256C178.88 50.16 179 50.052 179.144 49.932C179.312 49.788 179.444 49.704 179.54 49.68C179.636 49.68 179.696 49.644 179.72 49.572C179.744 49.476 179.828 49.296 179.972 49.032C180.116 48.744 180.404 48.324 180.836 47.772C181.316 47.244 181.628 46.824 181.772 46.512C181.916 46.176 181.928 45.816 181.808 45.432C181.784 45.336 181.712 45.276 181.592 45.252C181.496 45.228 181.364 45.168 181.196 45.072C180.956 45.072 180.788 45.132 180.692 45.252C180.62 45.348 180.452 45.288 180.188 45.072L179.612 44.352L179 44.964C178.616 45.348 178.268 45.828 177.956 46.404C177.668 46.98 177.44 47.568 177.272 48.168C177.104 48.768 176.996 49.296 176.948 49.752C176.924 50.112 176.984 50.352 177.128 50.472C177.272 50.592 177.464 50.664 177.704 50.688Z" fill="black"/>
<rect x="86.4141" y="94.2583" width="40.2322" height="54.3678" transform="rotate(-1.33333 86.4141 94.2583)" fill="white"/>
<path fill-rule="evenodd" clip-rule="evenodd" d="M74.4618 111.045C69.5232 125.686 67.0539 133.006 69.0513 139.396C69.6964 141.459 70.6623 143.408 71.9135 145.171C75.7876 150.631 83.1079 153.1 97.7487 158.039C112.389 162.977 119.71 165.447 126.099 163.449C128.163 162.804 130.112 161.838 131.875 160.587C137.335 156.713 139.804 149.393 144.742 134.752L147.376 126.943C148.481 123.667 149.463 120.758 150.298 118.144L150.024 118.051C146.697 116.93 144.671 116.246 143.016 115.38C133.923 110.618 128.93 100.542 130.649 90.4223C130.962 88.581 131.646 86.5547 132.768 83.2281L132.861 82.9543C130.274 82.0354 127.365 81.0541 124.09 79.9492C109.449 75.0106 102.128 72.5414 95.739 74.5388C93.6755 75.1839 91.7263 76.1497 89.9631 77.4009C84.5037 81.275 82.0344 88.5954 77.0958 103.236L74.4618 111.045ZM117.799 108.268C118.344 106.651 117.475 104.898 115.858 104.352C114.241 103.807 112.487 104.675 111.942 106.293L102.807 133.375C102.766 133.313 102.724 133.249 102.682 133.183C101.764 131.747 100.774 129.737 99.3061 126.742L95.7057 119.394C94.9547 117.861 93.1034 117.228 91.5707 117.979C90.038 118.73 89.4043 120.581 90.1553 122.114L93.8342 129.622C95.2028 132.415 96.3442 134.745 97.4745 136.513C98.6599 138.367 100.034 139.936 102.026 140.904C102.883 141.32 103.79 141.626 104.724 141.814C106.895 142.251 108.939 141.834 111.005 141.077C112.976 140.355 115.295 139.193 118.076 137.799L125.551 134.053C127.077 133.289 127.694 131.432 126.929 129.906C126.165 128.38 124.308 127.763 122.782 128.527L115.466 132.193C112.485 133.687 110.479 134.687 108.879 135.273C108.805 135.3 108.733 135.326 108.663 135.351L117.799 108.268Z" fill="url(#paint0_linear_5473_74027)"/>
<path d="M145.884 109.904C147.024 110.501 148.506 111.016 152.06 112.215C153.588 106.47 153.967 102.368 152.787 98.5923C152.142 96.5288 151.176 94.5797 149.925 92.8165C147.635 89.59 144.142 87.4079 138.645 85.1432C137.447 88.6978 136.958 90.1889 136.743 91.4574C135.472 98.9372 139.163 106.384 145.884 109.904Z" fill="url(#paint1_linear_5473_74027)"/>
<path d="M15.5455 42.8538L2.06055 65.6848L32.6543 62.3781" stroke="black" stroke-width="2.7411" stroke-miterlimit="10" stroke-linecap="round" stroke-linejoin="round"/>
<path d="M3.23047 65.5861C17.4555 55.6774 55.6902 33.0986 82.8903 42.5158" stroke="black" stroke-width="2.7411" stroke-miterlimit="10" stroke-linecap="round" stroke-linejoin="round"/>
<defs>
<linearGradient id="paint0_linear_5473_74027" x1="62.6084" y1="146.185" x2="164.506" y2="104.791" gradientUnits="userSpaceOnUse">
<stop stop-color="#9F834E"/>
<stop offset="1" stop-color="#ED0004"/>
</linearGradient>
<linearGradient id="paint1_linear_5473_74027" x1="62.6084" y1="146.185" x2="164.506" y2="104.791" gradientUnits="userSpaceOnUse">
<stop stop-color="#9F834E"/>
<stop offset="1" stop-color="#ED0004"/>
</linearGradient>
</defs>
</svg>
