<svg width="72" height="72" viewBox="0 0 72 72" fill="none" xmlns="http://www.w3.org/2000/svg">
<path d="M72 21C71.9961 20.2659 71.8138 19.5437 71.4689 18.8957C71.124 18.2477 70.6267 17.6932 70.02 17.28L49.02 2.99997C48.282 2.49565 47.4089 2.22584 46.515 2.22584C45.6211 2.22584 44.748 2.49565 44.01 2.99997L26.46 15.93C26.1985 16.1202 25.8834 16.2227 25.56 16.2227C25.2366 16.2227 24.9215 16.1202 24.66 15.93L7.16999 2.99997C6.49111 2.49904 5.68508 2.19904 4.84389 2.13421C4.00269 2.06939 3.16021 2.24235 2.4126 2.63337C1.66499 3.02438 1.04236 3.61768 0.615763 4.34558C0.189168 5.07347 -0.0242069 5.90663 -9.98573e-06 6.74997V51C0.0039051 51.7341 0.186166 52.4562 0.531083 53.1042C0.875999 53.7523 1.37324 54.3067 1.97999 54.72L22.98 69C23.718 69.5043 24.5911 69.7741 25.485 69.7741C26.3789 69.7741 27.252 69.5043 27.99 69L45.48 56.13C45.7415 55.9397 46.0566 55.8373 46.38 55.8373C46.7034 55.8373 47.0185 55.9397 47.28 56.13L64.83 69C65.6091 69.5582 66.5416 69.8621 67.5 69.87C68.092 69.874 68.679 69.7603 69.2268 69.5355C69.7745 69.3108 70.2722 68.9795 70.6909 68.5608C71.1095 68.1422 71.4408 67.6445 71.6656 67.0967C71.8903 66.549 72.004 65.962 72 65.37V21ZM28.5 22.59C28.4951 22.3563 28.5472 22.1249 28.6517 21.9158C28.7562 21.7068 28.9101 21.5263 29.1 21.39L42.3 11.52C42.4175 11.4484 42.5524 11.4106 42.69 11.4106C42.8276 11.4106 42.9625 11.4484 43.08 11.52C43.181 11.5642 43.271 11.6301 43.3436 11.7131C43.4161 11.7961 43.4696 11.894 43.5 12V49.41C43.5049 49.6437 43.4528 49.875 43.3483 50.0841C43.2437 50.2932 43.0899 50.4737 42.9 50.61L29.7 60.48C29.5825 60.5515 29.4476 60.5893 29.31 60.5893C29.1724 60.5893 29.0375 60.5515 28.92 60.48C28.819 60.4357 28.729 60.3698 28.6564 60.2868C28.5838 60.2039 28.5304 60.1059 28.5 60V22.59ZM5.99999 11.19C5.99686 11.0469 6.03474 10.9059 6.10916 10.7836C6.18358 10.6613 6.29144 10.5629 6.41999 10.5C6.5375 10.4284 6.67242 10.3906 6.80999 10.3906C6.94756 10.3906 7.08248 10.4284 7.19999 10.5L21.9 21.33C22.0846 21.4713 22.2346 21.6528 22.3385 21.8607C22.4425 22.0686 22.4977 22.2975 22.5 22.53V60C22.5004 60.1349 22.4643 60.2674 22.3957 60.3836C22.327 60.4997 22.2283 60.5952 22.11 60.66C21.9905 60.7256 21.8563 60.76 21.72 60.76C21.5836 60.76 21.4495 60.7256 21.33 60.66L6.65999 50.61C6.45666 50.4757 6.28989 50.293 6.17468 50.0783C6.05947 49.8636 5.99944 49.6236 5.99999 49.38V11.19ZM66 60.81C66.0031 60.9531 65.9652 61.0941 65.8908 61.2163C65.8164 61.3386 65.7085 61.437 65.58 61.5C65.4625 61.5715 65.3276 61.6093 65.19 61.6093C65.0524 61.6093 64.9175 61.5715 64.8 61.5L50.1 50.76C49.9154 50.6187 49.7654 50.4372 49.6614 50.2292C49.5575 50.0213 49.5023 49.7924 49.5 49.56V12C49.4996 11.8651 49.5357 11.7325 49.6043 11.6164C49.6729 11.5002 49.7716 11.4047 49.89 11.34C50.0095 11.2743 50.1436 11.2399 50.28 11.2399C50.4163 11.2399 50.5505 11.2743 50.67 11.34L65.34 21.33C65.5433 21.4642 65.7101 21.6469 65.8253 21.8616C65.9405 22.0763 66.0005 22.3163 66 22.56V60.81Z" fill="#A76868"/>
</svg>
